<mxfile host="Electron" modified="2024-02-29T01:57:09.047Z" agent="Mozilla/5.0 (X11; Linux x86_64) AppleWebKit/537.36 (KHTML, like Gecko) draw.io/23.1.5 Chrome/120.0.6099.109 Electron/28.1.0 Safari/537.36" etag="_8qqlkiYBk1QrCBhORn0" version="23.1.5" type="device">
  <diagram name="Page-1" id="ySY26EZx3XtIVVSaq_LI">
    <mxGraphModel dx="1046" dy="615" grid="1" gridSize="10" guides="1" tooltips="1" connect="1" arrows="1" fold="1" page="1" pageScale="1" pageWidth="850" pageHeight="1100" math="0" shadow="0">
      <root>
        <mxCell id="0" />
        <mxCell id="1" parent="0" />
        <mxCell id="a9gxdJ2kkVZLNg_D-e25-18" style="edgeStyle=orthogonalEdgeStyle;rounded=0;orthogonalLoop=1;jettySize=auto;html=1;exitX=0;exitY=0.5;exitDx=0;exitDy=0;entryX=1;entryY=0.5;entryDx=0;entryDy=0;" edge="1" parent="1" source="a9gxdJ2kkVZLNg_D-e25-1" target="a9gxdJ2kkVZLNg_D-e25-7">
          <mxGeometry relative="1" as="geometry" />
        </mxCell>
        <mxCell id="a9gxdJ2kkVZLNg_D-e25-1" value="One &lt;br&gt;Unified &lt;br&gt;Backend" style="ellipse;whiteSpace=wrap;html=1;aspect=fixed;" vertex="1" parent="1">
          <mxGeometry x="320" y="320" width="120" height="120" as="geometry" />
        </mxCell>
        <mxCell id="a9gxdJ2kkVZLNg_D-e25-2" value="" style="shape=image;verticalLabelPosition=bottom;labelBackgroundColor=default;verticalAlign=top;aspect=fixed;imageAspect=0;image=data:image/svg+xml,PHN2ZyB4bWxucz0iaHR0cDovL3d3dy53My5vcmcvMjAwMC9zdmciIGhlaWdodD0iNDgwcHgiIHdpZHRoPSI0ODBweCIgdmlld0JveD0iMCAwIDQ4IDQ4Ij48cGF0aCBkPSJNNDQuMDgzLDI5Ljc5Yy0wLjE4My0wLjgyOS0wLjkzNS0xLjc5Ni0yLjQ1Mi0xLjc5NmMtMC4zMSwwLTAuNjQ5LDAuMDM5LTEuMDM1LDAuMTE5Yy0wLjcwOCwwLjE0Ni0xLjMxMSwwLjIxNy0xLjg0MiwwLjI0MWM0LjEzMy03LjA0LDYuODE2LTE2LjgxOSw0LjE1OS0yMC4yMTRjLTMuNTAxLTQuNDczLTguMjE0LTUuMTQxLTEwLjcxMS01LjE0MUwzMS45NjcsM2MtMC45MjksMC4wMTUtMS44OTMsMC4xMjktMi44NjMsMC4zMzlsLTMuNTgzLDAuNzc0QzI1LjAzMyw0LjA1MiwyNC41MzYsNC4wMDksMjQuMDE4LDRsLTAuMDMsMGwtMC4wMTYsMGwtMC4xNTItMC4wMDFjLTEuNTkzLDAtMy4wNDYsMC4zMzgtNC4zNDEsMC45NzNsLTEuMjUxLTAuNDkzYy0xLjcyLTAuNjc4LTQuMzA4LTEuNDg1LTYuODY4LTEuNDg1Yy0wLjE0NCwwLTAuMjg3LDAuMDAzLTAuNDMxLDAuMDA4QzguNDA3LDMuMDkzLDYuMjQxLDQuMDUsNC42NjQsNS43NjlDMi42OTYsNy45MTUsMS44LDExLjA1NCwyLjAwMywxNS4xQzIuMDEzLDE1LjMwOSw0LjQ2MSwzNiwxMS40LDM2aDAuMDI1bDAuMDY0LTAuMDAxYzAuOTAxLTAuMDIyLDEuNzYtMC4zODQsMi41NjMtMS4wNzdjMC42MTMsMC40NiwxLjQwNiwwLjczMiwyLjE0NSwwLjg0YzAuNDg4LDAuMTE1LDEuMzY2LDAuMjc4LDIuNDE4LDAuMjc4YzEuMjg0LDAsMi40NDItMC4yNjMsMy40NC0wLjczOGMtMC4wMDEsMC44OC0wLjAwNiwxLjk5NC0wLjAxNiwzLjQxOGwtMC4wMDEsMC4wNzVsMC4wMDUsMC4wNzVjMC4wOTcsMS40MTksMC4zNDIsMi42OTgsMC43MTEsMy43MDFjMS4wNTEsMi44NTksMi44NjYsNC40MzQsNS4xMTEsNC40MzRjMC4wOTMsMCwwLjE4OC0wLjAwMywwLjI4NC0wLjAwOWMxLjg0Ni0wLjExNCwzLjcxNy0xLjE1MSw1LjAwNC0yLjc3MmMxLjM5My0xLjc1NSwxLjcxNS0zLjYwNywxLjgzOS01LjAyNkwzNSwzOS4xMTF2LTAuMDg4di00LjA3OWwwLjEwMywwLjAxbDAuNDM2LDAuMDM4bDAuMDQyLDAuMDA0bDAuMDQyLDAuMDAyYzAuMTI0LDAuMDA2LDAuMjUyLDAuMDA4LDAuMzgxLDAuMDA4YzEuNTA3LDAsMy4zNjItMC4zOTEsNC42MTYtMC45NzRDNDEuODE5LDMzLjQ3Niw0NC41NTksMzEuOTQ4LDQ0LjA4MywyOS43OXoiIGZpbGw9IiNmZmYiLz48cGF0aCBkPSJNMzMsMzRjMC0wLjIwNSwwLjAxMi0wLjM3NiwwLjAxOC0wLjU2NUMzMy4wMDgsMzMuMTg0LDMzLDMzLDMzLDMzczAuMDEyLTAuMDA5LDAuMDMyLTAuMDIyYzAuMTQ5LTIuNjczLDAuODg2LTMuNzAzLDEuNjc1LTQuMjljLTAuMTEtMC4xNTMtMC4yMzctMC4zMTgtMC4zNTYtMC40NzVjLTAuMzMzLTAuNDM3LTAuNzQ4LTAuOTc5LTEuMTkyLTEuNjc0bC0wLjA4Mi0wLjE1OGMtMC4wNjctMC4xNjQtMC4yMjktMC40NDctMC40MzUtMC44MTljLTEuMTgzLTIuMTQtMy42NDUtNi41OTItMS45Ni05LjQwNGMwLjczOC0xLjIzMiwyLjEyMi0xLjk0Miw0LjEyMS0yLjExN0MzMy45ODYsMTEuNzE4LDMwLjkyNSw2LjExNSwyMy45ODUsNmMtMC4wMDIsMC0wLjAwNCwwLTAuMDA2LDBjLTYuMDQxLTAuMDk4LTguMDI2LDUuMzkyLTguNjcyLDguNjcyYzAuODktMC4zNzcsMS45MDYtMC42MDYsMi44MzYtMC42MDZjMC4wMTQsMCwwLjAyOSwwLDAuMDQzLDBjMi4yOSwwLjAxNywzLjg2NSwxLjIzOSw0LjMyMywzLjM1NGMwLjMzNSwxLjU1MiwwLjQ5NiwyLjkxLDAuNDkyLDQuMTUzYy0wLjAxLDIuNzE5LTAuNTU4LDQuMTQ5LTEuMDQyLDUuNDExbC0wLjE1NCwwLjQwOGMtMC4xMjQsMC4zMzQtMC4yNTUsMC42NDUtMC4zNzksMC45MzdjLTAuMTI2LDAuMjk4LTAuMjM3LDAuNTYzLTAuMzE4LDAuODAyYzAuNDg0LDAuMTEsMC44NjQsMC4yNjUsMS4xMjUsMC4zOGwwLjE1MSwwLjA2NmMwLjA0NywwLjAyLDAuMDk0LDAuMDQzLDAuMTM3LDAuMDY5YzAuODQ4LDAuNTE2LDEuMzc2LDEuMzA5LDEuNDg5LDIuMjMzYzAuMDYxLDAuNDk4LDAuMDUxLDMuODkzLDAuMDMsNi44NTVjMC4wODcsMS4yODUsMC4zMDUsMi4zNjQsMC41OTMsMy4xNDZjMC40MDksMS4xMTQsMS40MzEsMy4yNDEsMy4zOTQsMy4xMTljMS4zNy0wLjA4NSwyLjY4Ny0wLjkxOSwzLjU2MS0yLjAxOWMwLjkzOC0xLjE4MSwxLjI4NC0yLjQ4NywxLjQxNC0zLjk1OFYzNHoiIGZpbGw9IiMwMjc3YmQiLz48cGF0aCBkPSJNMTUuMTE0IDI4LjkxN2MtMS42MTMtMS42ODMtMi4zOTktMy45NDctMi4xMDQtNi4wNTYuMjg1LTIuMDM1LjEyNC00LjAyNy4wMzctNS4wOTgtLjAyOS0uMzU3LS4wNDgtLjYyMy0uMDQ3LS43NyAwLS4wMDguMDAyLS4wMTUuMDAzLS4wMjMgMC0uMDA0LS4wMDItLjAwNy0uMDAyLS4wMTEuMTIxLTMuMDIxIDEuMjg2LTcuNzg3IDQuNDkzLTEwLjYyQzE1LjkzMiA1LjcyNCAxMy4zODggNC45MTMgMTEgNSA3LjI1OCA1LjEzNiAzLjYzNiA3LjcyNCA0IDE1Yy4xMzcgMi43MyAzLjIyMiAxOS4xMDMgNy40NCAxOSAuNjAzLS4wMTUgMS4yMjktLjQwMiAxLjg3Mi0xLjE3NiAxLjAxNy0xLjIyMyAyLjAwNS0yLjMzMiAyLjcwOC0zLjEwNEMxNS43MDUgMjkuNDgxIDE1LjQwMSAyOS4yMTcgMTUuMTE0IDI4LjkxN3pNMzcuMDIzIDE0LjczMWMuMDE1LjE1NC4wMDIuMjg2LS4wMjIuNDA4LjAzMS45Mi0uMDY4IDEuODEzLS4xNjkgMi42NzctLjA3NC42MzYtLjE1IDEuMjkzLS4xNzEgMS45NTItLjAyMS42NDUuMDcgMS4yODIuMTY2IDEuOTU2LjIyNSAxLjU3OC40NTkgMy4zNTktLjc2NSA1LjQzNy4yMjUuMjk2LjQyMy41NzEuNTgxLjgzNyA0LjYxLTcuNDc1IDYuNDY4LTE2LjM2MSA0LjY5NS0xOC42MjZDMzguNjU1IDUuOTQ0IDM0Ljk0MSA0Ljk1MiAzMS45OTkgNWMtLjkyMS4wMTUtMS43NTguMTM5LTIuNDczLjI5NEMzNC42MDIgNy43NTQgMzYuODYzIDEzLjAyNiAzNy4wMjMgMTQuNzMxek00MSAzMC4wNzFjLTIuNjY1LjU1LTMuOTQ3LjI1Ny00LjU2OS0uMTI2LS4xLjA3Mi0uMi4xMzMtLjI5My4xOS0uMzcyLjIyNS0uOTYxLjU4My0xLjEwNSAyLjc4Mi4wODMuMDE2LjE1Ni4wMjUuMjQ2LjA0NEwzNS43MTQgMzNjMS4zMi4wNiAzLjA0OS0uMzEgNC4wNjMtLjc4MUM0MS45NjIgMzEuMjA1IDQzLjE1MyAyOS42MjcgNDEgMzAuMDcxek0yMi4wMjMgMzIuMTE5Yy0uMDM3LS4yOTgtLjE5OC0uNTM5LS40OTItLjczMmwtLjEwOC0uMDQ3QzIxLjA2MiAzMS4xODEgMjAuNjUzIDMxIDIwIDMxaC0uMDA0Yy0uMTI3LjAxLS4yNTMuMDE5LS4zOC4wMTktLjA1MiAwLS4xMDMtLjAwNy0uMTU1LS4wMDktLjQ3NC4zNjUtMS4xNDguNjQ3LTIuODE2Ljk5LTIuOTguNzU5LTEuMjIxIDEuNjU1LS4wNzggMS43OTQgMS4xMDYuMjc3IDMuNzM1LjYxNCA1LjQ4MS0uODA5QzIyLjA0MyAzMi41MzcgMjIuMDM1IDMyLjIyOSAyMi4wMjMgMzIuMTE5eiIgZmlsbD0iIzAyNzdiZCIvPjxwYXRoIGQ9Ik0yMC42ODEgMTguNTAxYy0uMjkyLjMwMi0uNzUzLjU2Ni0xLjI2Mi40ODQtLjgyOC0uMTM0LTEuNDYzLTEuMTMzLTEuNDE3LTEuNTA4aDBjLjA0NC0uMzc0Ljc1MS0uNTY5IDEuNTc4LS40MzUuMjg3LjA0Ny41NDguMTI4Ljc2OC4yMjgtLjMyLS42ODgtLjg5OS0xLjA4NS0xLjc4Mi0xLjE4Mi0xLjU2NS0uMTc0LTMuMjI2LjY0NC0zLjU2IDEuMDk3LjAwNy4xMS4wMi4yNTEuMDMzLjQxNy4wOTMgMS4xNDcuMjY1IDMuMjg0LS4wNSA1LjUzNy0uMjA4IDEuNDg1LjM5MyAzLjE2OSAxLjU2NyA0LjM5NS43NTcuNzkgMS42NDEgMS4yOSAyLjUxMyAxLjQzOC4xMTEtLjQ3OC4zMDktLjk0NC41MTMtMS40MjUuMTEzLS4yNjUuMjMzLS41NDcuMzQ2LS44NTJsLjE2Mi0uNDI3Yy40NDMtMS4xNTUuOS0yLjM1LjkwOS00LjcwM0MyMS4wMDMgMjAuNjYgMjAuODkyIDE5LjYyNyAyMC42ODEgMTguNTAxek0zNC44NDcgMjIuMDA3Yy0uMTA0LS43MjktLjIxMS0xLjQ4NC0uMTg1LTIuMzAzLjAyMy0uNzQyLjEwNS0xLjQ0Mi4xODQtMi4xMTkuMDYyLS41MzMuMTEtMS4wNDUuMTM4LTEuNTUtMS4yODkuMTA3LTIuMTQ1LjQ3OS0yLjU1MSAxLjEwOC4xNjgtLjA1Ny4zNTgtLjEwMi41NjgtLjEyOS44OTItLjExNiAxLjU0My4xNDEgMS42MTguNjM3LjA1NS4zNjMtLjI1My43MDUtLjM4OC44MzYtLjI3Ny4yNjktLjYyNi40NDItLjk4MS40ODgtLjA2NC4wMDgtLjEyOS4wMTItLjE5Mi4wMTItLjM1MyAwLS42OS0uMTIxLS45NDktLjMuMTEyIDEuOTczIDEuNTY3IDQuNjEyIDIuMjgzIDUuOTA3LjE1My4yNzcuMjcxLjQ5OC4zNjkuNjg4QzM1LjE1NCAyNC4xNjMgMzUuMDA5IDIzLjE0MyAzNC44NDcgMjIuMDA3eiIgZmlsbD0iIzAyNzdiZCIvPjwvc3ZnPg==;" vertex="1" parent="1">
          <mxGeometry x="340.38" y="160" width="80" height="80" as="geometry" />
        </mxCell>
        <mxCell id="a9gxdJ2kkVZLNg_D-e25-3" value="" style="shape=image;verticalLabelPosition=bottom;labelBackgroundColor=default;verticalAlign=top;aspect=fixed;imageAspect=0;image=data:image/svg+xml,PHN2ZyB4bWxucz0iaHR0cDovL3d3dy53My5vcmcvMjAwMC9zdmciIGhlaWdodD0iMjQwcHgiIHdpZHRoPSIyNDBweCIgdmlld0JveD0iMCAwIDQ4IDQ4Ij48bGluZWFyR3JhZGllbnQgZ3JhZGllbnRVbml0cz0idXNlclNwYWNlT25Vc2UiIHkyPSIzNi44OTkiIHkxPSIyNS4yMzYiIHgyPSIxMS4wODEiIHgxPSI5LjgiIGlkPSJlRE1nTWl4ZUQ2TTZFWVNZQnVKOHlhIj48c3RvcCBzdG9wLWNvbG9yPSIjMDU4ZjkyIiBvZmZzZXQ9IjAiLz48c3RvcCBzdG9wLWNvbG9yPSIjMDM4NDg5IiBvZmZzZXQ9Ii41Ii8+PHN0b3Agc3RvcC1jb2xvcj0iIzAyNmQ3MSIgb2Zmc2V0PSIxIi8+PC9saW5lYXJHcmFkaWVudD48cGF0aCBkPSJNMC4wMDIsMzUuMDQxaDEuOTJ2LTcuMDg1bDIuNjY3LDYuMDU3YzAuMzI5LDAuNzU1LDAuNzc5LDEuMDIyLDEuNjYyLDEuMDIyIHMxLjMxNS0wLjI2NywxLjY0NC0xLjAyMmwyLjY2Ny01LjkwMnY2LjkzaDEuOTJ2LTcuMjU4YzAtMC42OTctMC4yNzctMS4wMzUtMC44NDktMS4yMDljLTEuMzY3LTAuNDMtMi4yODUtMC4wNTktMi43LDAuODcyIGwtMi43MzUsNi4xNmwtMi42NDktNi4xNmMtMC4zOTgtMC45My0xLjMzMi0xLjMwMi0yLjctMC44NzJDMC4yNzcsMjYuNzQ4LDAsMjcuMDg1LDAsMjcuNzgydjcuMjU4SDAuMDAyeiBNMTMuNDQxLDI5LjI4MWgxLjkyIHY0LjA1NWMtMC4wMTUsMC4yLDAuMDY0LDAuNzMxLDAuOTksMC43NDVjMC40NzIsMC4wMDgsMi44MjEsMCwyLjg1LDB2LTQuOGgxLjkyYzAuMDA4LDAsMCw1Ljk2OCwwLDUuOTkzIGMwLjAxLDEuNDcyLTEuODI4LDEuNjYyLTIuNjczLDEuNjg3aC01LjAwNnYtMC45NmMwLjAxLDAsNC43ODcsMC4wMDEsNC44MDEsMGMxLjA4OC0wLjExNSwwLjk1OS0wLjcxNCwwLjk1OS0wLjg5NnYtMC4wNjRIMTYuMTkgYy0xLjY3LTAuMDE1LTIuNzM1LTAuNzUxLTIuNzQ3LTEuNTlDMTMuNDQxLDMzLjM3MywxMy40NzksMjkuMzE3LDEzLjQ0MSwyOS4yODF6IiBmaWxsPSJ1cmwoI2VETWdNaXhlRDZNNkVZU1lCdUo4eWEpIi8+PGxpbmVhckdyYWRpZW50IGdyYWRpZW50VW5pdHM9InVzZXJTcGFjZU9uVXNlIiB5Mj0iMzUuMjE3IiB5MT0iMjUuNjQ0IiB4Mj0iMzUuMTAxIiB4MT0iMzQuMjI0IiBpZD0iZURNZ01peGVENk02RVlTWUJ1Sjh5YiI+PHN0b3Agc3RvcC1jb2xvcj0iI2ZmOWMwZiIgb2Zmc2V0PSIwIi8+PHN0b3Agc3RvcC1jb2xvcj0iI2Q2N2UwMCIgb2Zmc2V0PSIuODEzIi8+PC9saW5lYXJHcmFkaWVudD48cGF0aCBkPSJNMjIuMDgxLDM1LjA0MWg0LjgwN2MwLjYzLDAsMS4yNDItMC4xMzIsMS43MjgtMC4zNmMwLjgxLTAuMzcyLDEuMTQ0LTAuODc1LDEuMTQ0LTEuNTM2IHYtMS4zNjhjMC0xLjQ3Ni0xLjgzLTEuNTM2LTIuODgtMS41MzZoLTEuOTJjLTAuNzU1LDAtMC44Ny0wLjQ1Ni0wLjk2LTAuOTZ2LTAuOTZjMC4wOS0wLjM4NCwwLjI1OC0wLjksMC45MjMtMC45NiBjMC43NzMsMCw0LjgzNiwwLDQuODM2LDB2LTAuOTZoLTQuNTY2Yy0wLjc1NSwwLTMuMTE0LDAuMDktMy4xMTQsMS45MnYxLjE4N2MwLDAuODQsMC43MzgsMS41MjQsMi4zNCwxLjY5MiBjMC4xOCwwLjAxMiwwLjM2LDAuMDI0LDAuNTM5LDAuMDI0YzAsMCwxLjg2Ni0wLjAzNiwxLjkyLTAuMDI0YzEuMDgsMCwwLjk2LDAuODQsMC45NiwwLjk2djAuOTZjMCwwLjEzMi0wLjAzLDAuOTYtMC45NzEsMC45NiBjLTAuMDcyLDAtNC43ODksMC00Ljc4OSwwVjM1LjA0MXogTTQwLjMyLDMzLjA4YzAsMS4xNTksMC42NTUsMS44MDksMi4zOTIsMS45MzljMC4xNjIsMC4wMTEsMC4zMjUsMC4wMjEsMC40ODgsMC4wMjFINDh2LTAuOTYgaC00LjQzNWMtMC45OTEsMC0xLjMyNS0wLjQxNi0xLjMyNS0xLjAxMXYtNi42NjloLTEuOTJWMzMuMDh6IE0zMC43MDQsMzMuMTIxdi00LjhjMC0xLjAyLDAuNS0xLjcyNCwxLjkxNi0xLjkyaDAuNjcyaDMuNDQ3aDAuNTI1IGMxLjQxNiwwLjE5NiwyLjA4LDAuODk5LDIuMDgsMS45MnY0Ljc4MmMwLDAuODI3LTAuMjE1LDEuMjcxLTAuOTE2LDEuNTU5TDM5LjkxNiwzNmgtMi4xNmwtMS4wNy0wLjk2aC0xLjI1N2wtMi4xMzYsMC4wMTIgYy0wLjMwOSwwLTAuNjM1LTAuMDQzLTAuOTkzLTAuMTQxQzMxLjIyNiwzNC42MTgsMzAuNzA0LDM0LjA1NCwzMC43MDQsMzMuMTIxeiBNMzIuNjI0LDMzLjEyMWMwLjA5OCwwLjQ2NywwLjQ3MywwLjk2LDEuMTQsMC45NiBoMS44NjRsLTEuMDY4LTAuOTZoMi4xNzVsMC41MTksMC40ODJjMCwwLDAuMTg2LTAuMTUyLDAuMTg2LTAuNDgyYzAtMC4zMy0wLjAxNi00LjgtMC4wMTYtNC44Yy0wLjA5OC0wLjQzNC0wLjUzOC0wLjk2LTEuMTg4LTAuOTYgaC0yLjQ3MWMtMC43NDksMC0xLjE0LDAuNTQ4LTEuMTQsMS4wNThMMzIuNjI0LDMzLjEyMUwzMi42MjQsMzMuMTIxeiIgZmlsbD0idXJsKCNlRE1nTWl4ZUQ2TTZFWVNZQnVKOHliKSIvPjxsaW5lYXJHcmFkaWVudCBncmFkaWVudFVuaXRzPSJ1c2VyU3BhY2VPblVzZSIgeTI9IjI2Ljc1IiB5MT0iMTEuNzE2IiB4Mj0iNDAuMzU1IiB4MT0iMzUuMDI5IiBpZD0iZURNZ01peGVENk02RVlTWUJ1Sjh5YyI+PHN0b3Agc3RvcC1jb2xvcj0iIzA1OGY5MiIgb2Zmc2V0PSIwIi8+PHN0b3Agc3RvcC1jb2xvcj0iIzAzODQ4OSIgb2Zmc2V0PSIuNSIvPjxzdG9wIHN0b3AtY29sb3I9IiMwMjZkNzEiIG9mZnNldD0iMSIvPjwvbGluZWFyR3JhZGllbnQ+PHBhdGggZD0iTTQ2LjE5OSwyNS4zODljLTEuMDMxLTAuMDI4LTEuODE4LDAuMDY4LTIuNDkxLDAuMzUxYy0wLjE5MSwwLjA4MS0wLjQ5NiwwLjA4My0wLjUyOCwwLjMyMyBjMC4xMDUsMC4xMSwwLjEyMSwwLjI3NSwwLjIwNSwwLjQxYzAuMTYsMC4yNiwwLjQzMiwwLjYwOSwwLjY3NCwwLjc5MWMwLjI2NSwwLjIsMC41MzgsMC40MTQsMC44MjEsMC41ODcgYzAuNTA0LDAuMzA3LDEuMDY3LDAuNDgzLDEuNTUzLDAuNzkxYzAuMjg2LDAuMTgxLDAuNTcsMC40MTEsMC44NSwwLjYxNWMwLjEzOCwwLjEwMiwwLjIzLDAuMjU5LDAuNDEsMC4zMjMgYzAtMC4wMSwwLTAuMDE5LDAtMC4wMjljLTAuMDk0LTAuMTItMC4xMTktMC4yODUtMC4yMDUtMC40MTFjLTAuMTI3LTAuMTI3LTAuMjU0LTAuMjU0LTAuMzgxLTAuMzgxIGMtMC4zNzItMC40OTQtMC44NDYtMC45MjktMS4zNDgtMS4yODljLTAuNDAxLTAuMjg4LTEuMjk4LTAuNjc3LTEuNDY2LTEuMTQzYy0wLjAxLTAuMDEtMC4wMTktMC4wMTktMC4wMy0wLjAzIGMwLjI4NC0wLjAzMiwwLjYxNy0wLjEzNSwwLjg3OS0wLjIwNWMwLjQ0MS0wLjExOCwwLjgzNC0wLjA4NywxLjI4OS0wLjIwNWMwLjIwNS0wLjA1OSwwLjQxLTAuMTE3LDAuNjE1LTAuMTc2IGMwLTAuMDM5LDAtMC4wNzgsMC0wLjExN2MtMC4yMy0wLjIzNi0wLjM5NS0wLjU0OC0wLjY0NS0wLjc2MmMtMC42NTctMC41NTktMS4zNzMtMS4xMTctMi4xMS0xLjU4MyBjLTAuNDA5LTAuMjU4LTAuOTE1LTAuNDI2LTEuMzQ4LTAuNjQ1Yy0wLjE0Ni0wLjA3NC0wLjQwMi0wLjExMi0wLjQ5OC0wLjIzNGMtMC4yMjgtMC4yOS0wLjM1MS0wLjY1OS0wLjUyNy0wLjk5NiBjLTAuMzY4LTAuNzA4LTAuNzMtMS40ODItMS4wNTUtMi4yMjdjLTAuMjIzLTAuNTA4LTAuMzY4LTEuMDEtMC42NDUtMS40NjZjLTEuMzMxLTIuMTg4LTIuNzY0LTMuNTA5LTQuOTgyLTQuODA3IGMtMC40NzItMC4yNzYtMS4wNDEtMC4zODUtMS42NDItMC41MjhjLTAuMzIzLTAuMDE5LTAuNjQ1LTAuMDM5LTAuOTY4LTAuMDU5Yy0wLjE5Ny0wLjA4My0wLjQwMS0wLjMyMy0wLjU4Ny0wLjQ0IGMtMC43MzUtMC40NjUtMi42MjEtMS40NzUtMy4xNjUtMC4xNDdjLTAuMzQ0LDAuODM4LDAuNTE0LDEuNjU2LDAuODIxLDIuMDgxYzAuMjE1LDAuMjk4LDAuNDkxLDAuNjMyLDAuNjQ1LDAuOTY4IGMwLjEwMSwwLjIyLDAuMTE5LDAuNDQxLDAuMjA1LDAuNjc0YzAuMjEzLDAuNTc0LDAuNTUsMS4yMjgsMC44MjYsMS43NTljMC4xMzksMC4yNjksMC4yOTMsMC41NTEsMC40NjksMC43OTEgYzAuMTA4LDAuMTQ3LDAuMjkzLDAuMjEyLDAuMzIzLDAuNDRjLTAuMTgxLDAuMjUzLTAuMTkxLDAuNjQ2LTAuMjkzLDAuOTY4Yy0wLjQ1OCwxLjQ0NS0wLjI4NSwzLjI0LDAuMzgxLDQuMzA4IGMwLjIwNCwwLjMyOCwwLjY4NiwxLjAzMiwxLjM0OCwwLjc2MmMwLjU3OS0wLjIzNiwwLjQ1LTAuOTY3LDAuNjE1LTEuNjEyYzAuMDM3LTAuMTQ2LDAuMDE0LTAuMjUzLDAuMDg4LTAuMzUxIGMwLDAuMDEsMCwwLjAxOSwwLDAuMDNjMC4xNzYsMC4zNTEsMC4zNTEsMC43MDQsMC41MjgsMS4wNTVjMC4zOTEsMC42MjksMS4wODQsMS4yODYsMS42NywxLjczIGMwLjMwNCwwLjIzLDAuNTQ0LDAuNjI4LDAuOTM4LDAuNzYyYzAtMC4wMSwwLTAuMDE5LDAtMC4wM2MtMC4wMSwwLTAuMDE5LDAtMC4wMywwYy0wLjA3Ni0wLjExOS0wLjE5Ni0wLjE2OC0wLjI5My0wLjI2NCBjLTAuMjI5LTAuMjI1LTAuNDg1LTAuNTA0LTAuNjc0LTAuNzYyYy0wLjUzNC0wLjcyNS0xLjAwNi0xLjUxOS0xLjQzNi0yLjM0NWMtMC4yMDUtMC4zOTUtMC4zODQtMC44MjktMC41NTctMS4yMzEgYy0wLjA2Ny0wLjE1NS0wLjA2Ni0wLjM4OS0wLjIwNS0wLjQ2OWMtMC4xOSwwLjI5NC0wLjQ2OCwwLjUzMi0wLjYxNSwwLjg3OWMtMC4yMzQsMC41NTUtMC4yNjUsMS4yMzMtMC4zNTEsMS45MzQgYy0wLjA1MiwwLjAxOC0wLjAyOSwwLjAwNi0wLjA1OSwwLjAyOWMtMC40MDgtMC4wOTktMC41NTItMC41MTgtMC43MDQtMC44NzljLTAuMzg0LTAuOTEyLTAuNDU1LTIuMzgtMC4xMTctMy40MjkgYzAuMDg3LTAuMjcyLDAuNDgyLTEuMTI3LDAuMzIzLTEuMzc4Yy0wLjA3Ni0wLjI1MS0wLjMyOC0wLjM5Ni0wLjQ2OC0wLjU4N2MtMC4xNzUtMC4yMzYtMC4zNDgtMC41NDgtMC40NjktMC44MjEgYy0wLjMxNC0wLjcxMS0wLjYxMi0xLjUzOC0wLjk0My0yLjI1N2MtMC4xNTgtMC4zNDQtMC40MjUtMC42OTEtMC42NDUtMC45OTZjLTAuMjQzLTAuMzM4LTAuNTE2LTAuNTg3LTAuNzA0LTAuOTk2IGMtMC4wNjctMC4xNDUtMC4xNTgtMC4zNzgtMC4wNTktMC41MjhjMC4wMzItMC4xMDEsMC4wNzYtMC4xNDMsMC4xNzYtMC4xNzZjMC4xNy0wLjEzMiwwLjY0MywwLjA0MywwLjgyMSwwLjExNyBjMC40NywwLjE5NSwwLjg2MiwwLjM4MSwxLjI2LDAuNjQ1YzAuMTkxLDAuMTI3LDAuMzg0LDAuMzcyLDAuNjE1LDAuNDRjMC4wODgsMCwwLjE3NiwwLDAuMjY0LDAgYzAuNDEzLDAuMDk1LDAuODc1LDAuMDMsMS4yNiwwLjE0N2MwLjY4MiwwLjIwNywxLjI5MiwwLjUyOSwxLjg0NiwwLjg3OWMxLjY5LDEuMDY3LDMuMDcxLDIuNTg1LDQuMDE2LDQuMzk3IGMwLjE1MiwwLjI5MiwwLjIxOCwwLjU3LDAuMzUxLDAuODc5YzAuMjcsMC42MjQsMC42MTEsMS4yNjYsMC44NzksMS44NzZjMC4yNjgsMC42MDksMC41MywxLjIyMywwLjkwOSwxLjczIGMwLjIsMC4yNjYsMC45NywwLjQwOSwxLjMxOSwwLjU1N2MwLjI0NSwwLjEwNCwwLjY0NywwLjIxMSwwLjg3OSwwLjM1MWMwLjQ0NCwwLjI2OCwwLjg3NCwwLjU4NywxLjI4OSwwLjg3OSBDNDUuNTI4LDI0LjgwMyw0Ni4xNjcsMjUuMTI0LDQ2LjE5OSwyNS4zODl6IiBmaWxsPSJ1cmwoI2VETWdNaXhlRDZNNkVZU1lCdUo4eWMpIi8+PHBhdGggZD0iTTMzLjA5OCwxNC4yMjNjLTAuMjE1LTAuMDA0LTAuMzY3LDAuMDIzLTAuNTI4LDAuMDU5YzAsMC4wMSwwLDAuMDE5LDAsMC4wM2MwLjAxLDAsMC4wMTksMCwwLjAzLDAgYzAuMTAzLDAuMjEsMC4yODMsMC4zNDcsMC40MSwwLjUyOGMwLjA5OCwwLjIwNSwwLjE5NSwwLjQxLDAuMjkzLDAuNjE1YzAuMDEtMC4wMSwwLjAxOS0wLjAxOSwwLjAyOS0wLjAyOSBjMC4xODEtMC4xMjgsMC4yNjUtMC4zMzIsMC4yNjQtMC42NDVjLTAuMDczLTAuMDc3LTAuMDg0LTAuMTczLTAuMTQ3LTAuMjY0QzMzLjM2NSwxNC4zOTQsMzMuMjAzLDE0LjMyNSwzMy4wOTgsMTQuMjIzeiIgZmlsbD0iIzAwNzk2YiIvPjwvc3ZnPg==;" vertex="1" parent="1">
          <mxGeometry x="480" y="200" width="80" height="80" as="geometry" />
        </mxCell>
        <mxCell id="a9gxdJ2kkVZLNg_D-e25-4" value="" style="shape=image;verticalLabelPosition=bottom;labelBackgroundColor=default;verticalAlign=top;aspect=fixed;imageAspect=0;image=data:image/svg+xml,PHN2ZyB4bWxucz0iaHR0cDovL3d3dy53My5vcmcvMjAwMC9zdmciIGhlaWdodD0iNDgwcHgiIHdpZHRoPSI0ODBweCIgdmlld0JveD0iMCAwIDQ4IDQ4Ij48cGF0aCBkPSJNNDUsMjkuMzE2YzAtMC42MzctMS42ODYtMS4xNTMtMy43NjktMS4xNTNjLTEuODEyLDAtMy4zMiwwLjM5MS0zLjY4MywwLjkxMSYjOTtjLTMuNTg2LTEuNjk0LTcuMTczLTMuMzg4LTEwLjc1OS01LjA4M2MtMS4yNDgtMC41OS0yLjY3My0wLjU4NC0zLjkxOCwwLjAxNGMtMy44MTgsMS44MzctNy42MzYsMy42NzQtMTEuNDU0LDUuNTExJiM5O2MtMC44NjQtMC4xMjYtMS45MDctMC4yMDEtMy4wMzItMC4yMDFDNS40MDgsMjkuMzE2LDMsMjkuODMyLDMsMzAuNDY5djMuNDZjMCwwLjAzMywwLjAzMywwLjA2NCwwLjA0NSwwLjA5NiYjOTtjLTAuMTQ2LDAuNTU1LDAuMDcsMS4yMDUsMC42NDksMS40NzhjNS42NDEsMi42NjUsMTEuMjgxLDUuMzI5LDE2LjkyMiw3Ljk5NGMxLjQzMiwwLjY3NywzLjA2OCwwLjY3MSw0LjQ5Ni0wLjAxNiYjOTtjNi40NDItMy4xLDEyLjg4NC02LjE5OSwxOS4zMjctOS4yOTljMC40ODQtMC4yMzMsMC42NTEtMC43ODYsMC41MDktMS4yNDdDNDQuOTcxLDMyLjg4Miw0NSwzMi44Myw0NSwzMi43NzVWMjkuMzE2eiIgZmlsbD0iI2I3MWMxYyIvPjxwYXRoIGQ9Ik0yMC42MTYsMzkuMTU4Yy01LjY0MS0yLjUyMi0xMS4yODEtNS4wNDQtMTYuOTIyLTcuNTY2Yy0wLjkyMi0wLjQxMi0wLjkyNi0xLjcyNy0wLjAwNy0yLjE0NiYjOTtjNi4zOTUtMi45MTIsMTIuNzg5LTUuODI0LDE5LjE4NC04LjczNmMxLjI0NC0wLjU2NywyLjY3LTAuNTcyLDMuOTE4LTAuMDE0YzUuODgxLDIuNjMsMTEuNzYzLDUuMjU5LDE3LjY0NCw3Ljg4OSYjOTtjMC43NTQsMC4zMzcsMC43NTgsMS40MTQsMC4wMDYsMS43NTZjLTYuNDQyLDIuOTM0LTEyLjg4NCw1Ljg2OC0xOS4zMjcsOC44MDFDMjMuNjg0LDM5Ljc5MiwyMi4wNDgsMzkuNzk4LDIwLjYxNiwzOS4xNTh6IiBmaWxsPSIjZTUzOTM1Ii8+PHBhdGggZD0iTTQ1LDIxLjY3NWMwLTAuNjM3LTEuNjg2LTEuMTUzLTMuNzY5LTEuMTUzYy0xLjgxMiwwLTMuMzIsMC4zOTEtMy42ODMsMC45MTEmIzk7Yy0zLjU4Ni0xLjY5NC03LjE3My0zLjM4OC0xMC43NTktNS4wODNjLTEuMjQ4LTAuNTktMi42NzMtMC41ODQtMy45MTgsMC4wMTRjLTMuODE4LDEuODM3LTcuNjM2LDMuNjc0LTExLjQ1NCw1LjUxMSYjOTtjLTAuODY0LTAuMTI2LTEuOTA3LTAuMjAxLTMuMDMyLTAuMjAxQzUuNDA4LDIxLjY3NSwzLDIyLjE5MiwzLDIyLjgyOXYzLjQ2YzAsMC4wMzMsMC4wMzMsMC4wNjQsMC4wNDUsMC4wOTYmIzk7Yy0wLjE0NiwwLjU1NSwwLjA3LDEuMjA1LDAuNjQ5LDEuNDc4YzUuNjQxLDIuNjY1LDExLjI4MSw1LjMyOSwxNi45MjIsNy45OTRjMS40MzIsMC42NzcsMy4wNjgsMC42NzEsNC40OTYtMC4wMTYmIzk7YzYuNDQyLTMuMSwxMi44ODQtNi4xOTksMTkuMzI3LTkuMjk5YzAuNDg0LTAuMjMzLDAuNjUxLTAuNzg2LDAuNTA5LTEuMjQ3QzQ0Ljk3MSwyNS4yNDIsNDUsMjUuMTksNDUsMjUuMTM1VjIxLjY3NXoiIGZpbGw9IiNiNzFjMWMiLz48cGF0aCBkPSJNMjAuNjE2LDMxLjUxN2MtNS42NDEtMi41MjItMTEuMjgxLTUuMDQ0LTE2LjkyMi03LjU2NmMtMC45MjItMC40MTItMC45MjYtMS43MjctMC4wMDctMi4xNDYmIzk7YzYuMzk1LTIuOTEyLDEyLjc4OS01LjgyNCwxOS4xODQtOC43MzZjMS4yNDQtMC41NjcsMi42Ny0wLjU3MiwzLjkxOC0wLjAxNGM1Ljg4MSwyLjYzLDExLjc2Myw1LjI1OSwxNy42NDQsNy44ODkmIzk7YzAuNzU0LDAuMzM3LDAuNzU4LDEuNDE0LDAuMDA2LDEuNzU2Yy02LjQ0MiwyLjkzNC0xMi44ODQsNS44NjgtMTkuMzI3LDguODAxQzIzLjY4NCwzMi4xNTIsMjIuMDQ4LDMyLjE1OCwyMC42MTYsMzEuNTE3eiIgZmlsbD0iI2U1MzkzNSIvPjxwYXRoIGQ9Ik00NSwxNC4wMzVjMC0wLjYzNy0xLjY4Ni0xLjE1My0zLjc2OS0xLjE1M2MtMS44MTIsMC0zLjMyLDAuMzkxLTMuNjgzLDAuOTExJiM5O2MtMy41ODYtMS42OTQtNy4xNzMtMy4zODgtMTAuNzU5LTUuMDgzYy0xLjI0OC0wLjU5LTIuNjczLTAuNTg0LTMuOTE4LDAuMDE0Yy0zLjgxOCwxLjgzNy03LjYzNiwzLjY3NC0xMS40NTQsNS41MTEmIzk7Yy0wLjg2NC0wLjEyNi0xLjkwNy0wLjIwMS0zLjAzMi0wLjIwMUM1LjQwOCwxNC4wMzUsMywxNC41NTEsMywxNS4xODh2My40NmMwLDAuMDMzLDAuMDMzLDAuMDY0LDAuMDQ1LDAuMDk2JiM5O2MtMC4xNDYsMC41NTUsMC4wNywxLjIwNSwwLjY0OSwxLjQ3OGM1LjY0MSwyLjY2NSwxMS4yODEsNS4zMjksMTYuOTIyLDcuOTk0YzEuNDMyLDAuNjc3LDMuMDY4LDAuNjcxLDQuNDk2LTAuMDE2JiM5O2M2LjQ0Mi0zLjEsMTIuODg0LTYuMTk5LDE5LjMyNy05LjI5OWMwLjQ4NC0wLjIzMywwLjY1MS0wLjc4NiwwLjUwOS0xLjI0N0M0NC45NzEsMTcuNjAxLDQ1LDE3LjU0OSw0NSwxNy40OTRWMTQuMDM1eiIgZmlsbD0iI2I3MWMxYyIvPjxwYXRoIGQ9Ik0yMC42MTYsMjMuODc3Yy01LjY0MS0yLjUyMi0xMS4yODEtNS4wNDQtMTYuOTIyLTcuNTY2Yy0wLjkyMi0wLjQxMi0wLjkyNi0xLjcyNy0wLjAwNy0yLjE0NiYjOTtjNi4zOTUtMi45MTIsMTIuNzg5LTUuODI0LDE5LjE4NC04LjczNmMxLjI0NC0wLjU2NywyLjY3LTAuNTcyLDMuOTE4LTAuMDE0YzUuODgxLDIuNjMsMTEuNzYzLDUuMjU5LDE3LjY0NCw3Ljg4OSYjOTtjMC43NTQsMC4zMzcsMC43NTgsMS40MTQsMC4wMDYsMS43NTZjLTYuNDQyLDIuOTM0LTEyLjg4NCw1Ljg2OC0xOS4zMjcsOC44MDFDMjMuNjg0LDI0LjUxMiwyMi4wNDgsMjQuNTE3LDIwLjYxNiwyMy44Nzd6IiBmaWxsPSIjZTUzOTM1Ii8+PHBhdGggZD0iTTE4Ljc0OCwxNC43NDFjLTAuMDAyLDEuMDQyLTIuNzYyLDIuMDU3LTUuMDkzLDIuMDg2Yy0yLjQxOSwwLjAzLTUuMjczLTAuOTkzLTUuMjgyLTIuMDUxJiM5O2MtMC4wMDktMS4wNjEsMi44NDItMi4xNjEsNS4zMTEtMi4xMzVDMTYuMDE3LDEyLjY2NSwxOC43NTEsMTMuNzAzLDE4Ljc0OCwxNC43NDF6IiBmaWxsPSIjZmZmIi8+PHBhdGggZD0iTTE3LjAzOCwxOC40NzFjMi4zOTMsMS4wMjIsNC43ODUsMi4wNDUsNy4xNzgsMy4wNjdjMS4wNTQtMS41NiwyLjEwOC0zLjEyLDMuMTYyLTQuNjgmIzk7QzIzLjkzMSwxNy4zOTYsMjAuNDg1LDE3LjkzNCwxNy4wMzgsMTguNDcxeiIgZmlsbD0iI2ZmZiIvPjxwYXRoIGQ9Ik0yMS44Niw5Ljc3NWMtMS4xMDEsMC40MDEtMi4yMDMsMC44MDEtMy4zMDQsMS4yMDJjMS41MDcsMC4xMzIsMy4wMTUsMC4yNjQsNC41MjIsMC4zOTUmIzk7YzAuNDgsMC43OTYsMC45NTksMS41OTIsMS40MzksMi4zODdjMC4yOTUtMC43MjIsMC41OS0xLjQ0NCwwLjg4NS0yLjE2NmMxLjI4Ni0wLjEsMi41NzItMC4yLDMuODU4LTAuMyYjOTtjLTAuOTk3LTAuNDE5LTEuOTk0LTAuODM5LTIuOTkxLTEuMjU5YzAuMjU0LTAuNjA4LDAuNTA4LTEuMjE2LDAuNzYyLTEuODI1Yy0wLjk3LDAuMjktMS45MzksMC41OC0yLjkwOSwwLjg3JiM5O2MtMS4wNy0wLjQyMi0yLjE0LTAuODQzLTMuMjEtMS4yNjVDMjEuMjI4LDguNDY4LDIxLjU0NCw5LjEyMiwyMS44Niw5Ljc3NXoiIGZpbGw9IiNmZmYiLz48cGF0aCBkPSJNMjcuMjY3LDE0LjYxOWMyLjI3MS0wLjkwNiw0LjU0My0xLjgxMyw2LjgxNC0yLjcxOWMxLjk2MiwwLjgzNCwzLjkyNCwxLjY2OCw1Ljg4NiwyLjUwMiYjOTtjLTIuMjAyLDAuODc2LTQuNDAzLDEuNzUyLTYuNjA1LDIuNjI5QzMxLjMzMSwxNi4yMjYsMjkuMjk5LDE1LjQyMywyNy4yNjcsMTQuNjE5eiIgZmlsbD0iI2I3MWMxYyIvPjxwYXRoIGQ9Ik0zNC4wODIsMTEuOTYzYy0wLjAwNSwxLjU5Ni0wLjAxLDMuMTkxLTAuMDE1LDQuNzg3YzEuOTY3LTAuNzgzLDMuOTM0LTEuNTY1LDUuOTAxLTIuMzQ4JiM5O0MzOC4wMDYsMTMuNTg5LDM2LjA0NCwxMi43NzYsMzQuMDgyLDExLjk2M3oiIGZpbGw9IiNhMDFjMWMiLz48L3N2Zz4=;" vertex="1" parent="1">
          <mxGeometry x="520" y="340" width="80" height="80" as="geometry" />
        </mxCell>
        <mxCell id="a9gxdJ2kkVZLNg_D-e25-6" value="" style="shape=image;verticalLabelPosition=bottom;labelBackgroundColor=default;verticalAlign=top;aspect=fixed;imageAspect=0;image=https://www.paradigmadigital.com/wp-content/uploads/2016/03/2000px-Cassandra_logo.svg.png;" vertex="1" parent="1">
          <mxGeometry x="200.75" y="480" width="119.25" height="80" as="geometry" />
        </mxCell>
        <mxCell id="a9gxdJ2kkVZLNg_D-e25-7" value="" style="shape=image;verticalLabelPosition=bottom;labelBackgroundColor=default;verticalAlign=top;aspect=fixed;imageAspect=0;image=data:image/svg+xml,PHN2ZyB4bWxucz0iaHR0cDovL3d3dy53My5vcmcvMjAwMC9zdmciIGhlaWdodD0iMzg0cHgiIHdpZHRoPSIzODRweCIgdmlld0JveD0iMCAwIDI0IDI0Ij48cGF0aCBkPSJNOS44MDcsMjRjMi4zODQtMC4wMDgsNC4zNDUtMS45NzQsNC4zNDItNC4zNThjMC0yLjQxLTEuOTYzLTQuMzM2LTQuNDA4LTQuMzI2JiM5O2MtMi4zNDgsMC4wMS00LjMzMywyLjAxLTQuMzA5LDQuMzRDNS40NTYsMjIuMDM1LDcuNDQyLDI0LjAwOCw5LjgwNywyNEw5LjgwNywyNHoiIGZpbGw9IiM2MEFFNDQiLz48cGF0aCBkPSJNOS43NTksMTUuMzE2Yy0wLjAwNiwwLTAuMDEyLDAtMC4wMTgsMGMtMi4zNDgsMC4wMS00LjMzMywyLjAxLTQuMzA5LDQuMzRjMC4wMjQsMi4zNzIsMiw0LjM0LDQuMzU1LDQuMzQ0JiM5O2gwLjAyYzAuMDUzLDAsMC4xMDUtMC4wMDEsMC4xNTctMC4wMDN2LTguNjc2QzkuODk2LDE1LjMxOCw5LjgyNywxNS4zMTYsOS43NTksMTUuMzE2TDkuNzU5LDE1LjMxNnoiIGZpbGw9IiM1NDk3M0IiLz48cGF0aCBkPSJNNi4wNjMsNS42NzhjMS41NTksMC4wMDksMi44NS0xLjI3NiwyLjg1LTIuODM5YzAtMS41MzEtMS4yNy0yLjgxNi0yLjgwNi0yLjg0JiM5O0M0LjU2NS0wLjAyMSwzLjI0NCwxLjI2OSwzLjIxOSwyLjgyQzMuMTk1LDQuMzUxLDQuNTEsNS42NzIsNi4wNjMsNS42NzhMNi4wNjMsNS42Nzh6IiBmaWxsPSIjNjBBRTQ0Ii8+PHBhdGggZD0iTTYsMC4wMDFDNC41MDQsMC4wMzksMy4yNDMsMS4zMDUsMy4yMTksMi44MkMzLjE5NSw0LjMzLDQuNDc0LDUuNjM2LDYsNS42NzdWMC4wMDFMNiwwLjAwMXoiIGZpbGw9IiM1NDk3M0IiLz48cGF0aCBkPSJNMTIuMDM1LDguMzE5Yy0wLjAxNiwyLjk4MiwyLjM1Myw1LjM5Miw1LjMwOCw1LjQwN2MyLjk4OSwwLjAxMiw1LjM5NC0yLjM1MSw1LjQwNy01LjMwOSYjOTtjMC4wMTMtMi45MjktMi4zNzItNS4zNDEtNS4zMDctNS4zNjRDMTQuNTAxLDMuMDMyLDEyLjA0OSw1LjQxOSwxMi4wMzUsOC4zMTlMMTIuMDM1LDguMzE5eiIgZmlsbD0iIzYwQUU0NCIvPjxwYXRoIGQ9Ik0xNy40MDMsMy4wNTNjLTIuOTI0LDAtNS4zNTQsMi4zNzgtNS4zNjgsNS4yNjZjLTAuMDE2LDIuOTgyLDIuMzUzLDUuMzkyLDUuMzA4LDUuNDA3JiM5O2MwLjAwNywwLDAuMDE1LDAsMC4wMjIsMGMwLjA4LDAsMC4xNjEtMC4wMDIsMC4yNC0wLjAwNVYzLjA1N2MtMC4wNTQtMC4wMDItMC4xMDgtMC4wMDMtMC4xNjMtMC4wMDQmIzk7QzE3LjQzLDMuMDUzLDE3LjQxNiwzLjA1MywxNy40MDMsMy4wNTNMMTcuNDAzLDMuMDUzeiIgZmlsbD0iIzU0OTczQiIvPjxwYXRoIGQ9Ik0zLjA0LDUuMDE5Yy0yLjUxNiwzLjY3My0yLjM3LDguNjc5LDAuMzc0LDEyLjE4NWMwLjQ5MywwLjYzMSwxLjAyOSwxLjIxOSwxLjY5NSwxLjcxJiM5O2MwLjc1My0zLjIwOCwzLjQwNS00LjI1MSw1LjUzNi0zLjg4OGMyLjYwMSwwLjQ0MSw0LjAxNSwyLjYwMSwzLjc3LDUuNzg3YzMuNTI3LTAuNDMxLDcuOTUyLTUuNjUsNy41MTYtOC44NjUmIzk7Yy0yLjcwNSwyLjM1Ni01LjAxNiwyLjc3OS03LjQ0MywxLjM2Yy0yLjE0Ni0xLjI1NS0zLjIwNS0zLjcyMS0yLjY2Mi02LjE5N2MwLjU4OS0yLjY4LDIuNTEzLTQuMDg1LDYuMjE3LTQuNDY3JiM5O2MtMi44MS0yLjAwMi01Ljc4Mi0yLjYxOS05LjA0My0xLjgyM0M4LjU3NiwwLjkyMyw4Ljc1NywxLjA4Miw4Ljg3MiwxLjI5NGMwLjc4OSwxLjQ0NywwLjM4NSwzLjIwNy0wLjk0NCw0LjE1MSYjOTtDNi41OTksNi4zOSw0Ljc5Miw2LjIsMy42OTYsNC45NTVDMy4zNzMsNC41ODgsMy4yNjksNC42ODYsMy4wNCw1LjAxOUwzLjA0LDUuMDE5eiBNMTcuMjEsMTQuNzAyJiM5O2MwLjQ4Ni0wLjAxMSwwLjg2NiwwLjM1NiwwLjg2NSwwLjg0MWMwLjAwMSwwLjQ1NS0wLjM2MiwwLjgyMi0wLjgyNCwwLjgzMmMtMC40ODQsMC4wMTEtMC44NzUtMC4zNjctMC44NjgtMC44NCYjOTtDMTYuMzg4LDE1LjA3MywxNi43NDcsMTQuNzEzLDE3LjIxLDE0LjcwMkwxNy4yMSwxNC43MDJ6IE0xNS43MywxNi40NzljMC40OCwwLjAwNCwwLjg1MywwLjM5MywwLjgzNSwwLjg3NSYjOTtjLTAuMDE1LDAuNDYyLTAuMzcsMC43OTItMC44NTIsMC43OTFjLTAuNDk2LTAuMDA0LTAuODU5LTAuMzc1LTAuODQxLTAuODU5QzE0Ljg5LDE2Ljg0MSwxNS4yNzYsMTYuNDc4LDE1LjczLDE2LjQ3OUwxNS43MywxNi40Nzl6IE0xMi44MTUsMi4wOTVjMC40NjQtMC4wMjIsMC44NzMsMC4zNjUsMC44ODMsMC44MzVjMC4wMDksMC40NTYtMC4zNDgsMC44MjctMC44MDksMC44NDRjLTAuNTA4LDAuMDE2LTAuODY0LTAuMzItMC44NjktMC44MTgmIzk7QzEyLjAxNSwyLjQ3OSwxMi4zNDksMi4xMTgsMTIuODE1LDIuMDk1TDEyLjgxNSwyLjA5NXogTTEwLjY5OSwxLjM0OWMwLjQ2MywwLjAxMywwLjgxNiwwLjM3NiwwLjgxNiwwLjgzNyYjOTtjLTAuMDAxLDAuNDQ4LTAuMzczLDAuODI2LTAuODI2LDAuODM4Yy0wLjQ3LDAuMDEyLTAuODctMC4zOC0wLjg2OC0wLjg1QzkuODIyLDEuNjkzLDEwLjIwNSwxLjMzNCwxMC42OTksMS4zNDlMMTAuNjk5LDEuMzQ5eiBNNy42ODUsMTQuMzEyYy0wLjAwMiwwLjQ1My0wLjM3MiwwLjgxMy0wLjgzOSwwLjgyMWMtMC41MDEsMC4wMDgtMC44NTktMC4zNDUtMC44NTMtMC44MzhjMC4wMDYtMC40NiwwLjM3Mi0wLjgzMiwwLjgyMi0wLjgzNiYjOTtDNy4yODQsMTMuNDU1LDcuNjg4LDEzLjg1MSw3LjY4NSwxNC4zMTJMNy42ODUsMTQuMzEyeiBNNi41MTMsMTIuMTkzYy0wLjAxOCwwLjQ2OC0wLjM4NSwwLjgxMi0wLjg0OSwwLjc5NyYjOTtjLTAuNDc5LTAuMDEzLTAuODM5LTAuNDA5LTAuODE2LTAuODkxYzAuMDIzLTAuNDYsMC4zOTctMC44MDcsMC44NjItMC43OThDNi4xODksMTEuMzEyLDYuNTMzLDExLjY5Myw2LjUxMywxMi4xOTNMNi41MTMsMTIuMTkzeiBNNS4xOTQsMTAuNTgzQzQuNzIsMTAuNTksNC4zMjgsMTAuMjAyLDQuMzMxLDkuNzI5YzAuMDAzLTAuNDUxLDAuMzc2LTAuODI0LDAuODMyLTAuODM1QzUuNjI1LDguODgyLDUuOTksOS4yMjksNi4wMSw5LjY5NiYjOTtDNi4wMjksMTAuMTg1LDUuNjcyLDEwLjU3NCw1LjE5NCwxMC41ODNMNS4xOTQsMTAuNTgzeiBNNS4wNTUsNi42MjlDNS41MzYsNi42MzcsNS45MSw3LjAzLDUuODg5LDcuNTA1JiM5O0M1Ljg3LDcuOTU3LDUuNDksOC4zMSw1LjAyNyw4LjMwM2MtMC40NjEtMC4wMDYtMC44MjMtMC4zNjUtMC44My0wLjgyNkM0LjE5LDYuOTkzLDQuNTY3LDYuNjIxLDUuMDU1LDYuNjI5TDUuMDU1LDYuNjI5eiIgZmlsbD0iIzFDODhCQyIvPjxwYXRoIGQ9Ik02LjgzLDE1LjEzM2MtMC40OTIsMC0wLjg0My0wLjM1LTAuODM4LTAuODM4YzAuMDA2LTAuNDYsMC4zNzItMC44MzIsMC44MjItMC44MzZjMC4wMDIsMCwwLjAwNCwwLDAuMDA3LDAmIzk7YzAuNDY4LDAsMC44NjgsMC4zOTQsMC44NjQsMC44NTNjLTAuMDAyLDAuNDUzLTAuMzcyLDAuODEzLTAuODM5LDAuODIxQzYuODQsMTUuMTMzLDYuODM1LDE1LjEzMyw2LjgzLDE1LjEzM0w2LjgzLDE1LjEzM3ogTTUuNjk0LDEyLjk5MWMtMC4wMSwwLTAuMDIsMC0wLjAzLDBjLTAuNDc5LTAuMDEzLTAuODM5LTAuNDA5LTAuODE2LTAuODkxYzAuMDIzLTAuNDU0LDAuMzg4LTAuNzk4LDAuODQ0LTAuNzk4JiM5O2MwLjAwNiwwLDAuMDExLDAsMC4wMTcsMGMwLjQ4LDAuMDExLDAuODI0LDAuMzkyLDAuODAzLDAuODkyQzYuNDk1LDEyLjY1MSw2LjE0NCwxMi45OTEsNS42OTQsMTIuOTkxTDUuNjk0LDEyLjk5MXogTTUuMTgxLDEwLjU4MyYjOTtjLTAuNDY5LDAtMC44NTMtMC4zODUtMC44NS0wLjg1NGMwLjAwMy0wLjQ1MSwwLjM3Ni0wLjgyNCwwLjgzMi0wLjgzNWMwLjAwOCwwLDAuMDE1LDAsMC4wMjMsMGMwLjQ1MSwwLDAuODA1LDAuMzQzLDAuODI0LDAuODAzJiM5O2MwLjAxOSwwLjQ4OS0wLjMzOCwwLjg3OC0wLjgxNiwwLjg4NkM1LjE5LDEwLjU4Myw1LjE4NiwxMC41ODMsNS4xODEsMTAuNTgzTDUuMTgxLDEwLjU4M3ogTTUuMDQxLDguMzAzYy0wLjAwNSwwLTAuMDA5LDAtMC4wMTQsMCYjOTtjLTAuNDYxLTAuMDA2LTAuODIzLTAuMzY1LTAuODMtMC44MjZDNC4xOSw2Ljk5OCw0LjU2LDYuNjI5LDUuMDQsNi42MjljMC4wMDUsMCwwLjAxLDAsMC4wMTUsMEM1LjUzNiw2LjYzNyw1LjkxLDcuMDMsNS44ODksNy41MDUmIzk7QzUuODcsNy45NTMsNS40OTgsOC4zMDMsNS4wNDEsOC4zMDNMNS4wNDEsOC4zMDN6IE0xMC42MDksMC41NDFjLTAuNTI5LDAuMDU0LTEuMDY2LDAuMTQ4LTEuNjEsMC4yODEmIzk7QzguNTc2LDAuOTIzLDguNzU3LDEuMDgyLDguODcyLDEuMjk0YzAuNzg5LDEuNDQ3LDAuMzg1LDMuMjA3LTAuOTQ0LDQuMTUxQzcuMzY2LDUuODQ0LDYuNzE5LDYuMDQxLDYuMDc3LDYuMDQxJiM5O2MtMC44NzgsMC0xLjc0Ny0wLjM2Ny0yLjM4LTEuMDg2QzMuNTUzLDQuNzkyLDMuNDUzLDQuNzIxLDMuMzY2LDQuNzIxYy0wLjEwOSwwLTAuMTk4LDAuMTEzLTAuMzI1LDAuMjk3JiM5O2MtMi41MTYsMy42NzMtMi4zNyw4LjY3OSwwLjM3NCwxMi4xODVjMC40OTMsMC42MzEsMS4wMjksMS4yMTksMS42OTUsMS43MWMwLjY1OC0yLjgwNywyLjc3Mi0zLjk1Niw0LjcxNy0zLjk1NiYjOTtjMC4yNjYsMCwwLjUyNywwLjAyMSwwLjc4MywwLjA2M1YzLjAyMUMxMC4xNzQsMi45OSw5LjgxOSwyLjYxNyw5LjgyLDIuMTc0YzAuMDAyLTAuNDUxLDAuMzM5LTAuNzk1LDAuNzg5LTAuODI0VjAuNTQxJiM5O0wxMC42MDksMC41NDF6IiBmaWxsPSIjMTg3NkE0Ii8+PC9zdmc+;" vertex="1" parent="1">
          <mxGeometry x="160" y="340" width="80" height="80" as="geometry" />
        </mxCell>
        <mxCell id="a9gxdJ2kkVZLNg_D-e25-10" value="" style="shape=image;verticalLabelPosition=bottom;labelBackgroundColor=default;verticalAlign=top;aspect=fixed;imageAspect=0;image=data:image/svg+xml,PHN2ZyB4bWxucz0iaHR0cDovL3d3dy53My5vcmcvMjAwMC9zdmciIGhlaWdodD0iNDgwcHgiIHdpZHRoPSI0ODBweCIgdmlld0JveD0iMCAwIDQ4IDQ4Ij48cGF0aCBkPSJNMzcsMjRjMC0zLjMxNC0yLjY4Ni02LTYtNkg1LjkxOEM1LjMyMywxOS44OTQsNSwyMS45MDksNSwyNHMwLjMyMyw0LjEwNiwwLjkxOCw2SDMxIEMzNC4zMTQsMzAsMzcsMjcuMzE0LDM3LDI0eiIgZmlsbD0iIzI5YjZmNiIvPjxwYXRoIGQ9Ik0yNSw0NGM2LjUyNCwwLDEyLjMwNS0zLjEzMywxNS45NTQtNy45NjhDMzguODM1LDM0LjE1MSwzNi4wNTUsMzMsMzMsMzNINy4xNTcgQzEwLjQ1MywzOS41MiwxNy4xOTYsNDQsMjUsNDR6IiBmaWxsPSIjNGRiNmFjIi8+PHBhdGggZD0iTTI1LDRDMTcuMTk1LDQsMTAuNDUzLDguNDgsNy4xNTcsMTVIMzNjMy4wNTEsMCw1LjgyOC0xLjE0OCw3Ljk0Ni0zLjAyNCBDMzcuMjk5LDcuMTM4LDMxLjUyNSw0LDI1LDR6IiBmaWxsPSIjZmZjYTI4Ii8+PHBhdGggZD0iTTIyLjA3MywxNWMtMS41MTMtMy4zNjctMy44NDUtNi4yODgtNi43NDctOC41MDFDMTEuODE3LDguNDQzLDguOTU3LDExLjQxMiw3LjE0MywxNUgyMi4wNzN6IiBmaWxsPSIjZjlhODI1Ii8+PHBhdGggZD0iTTE1LjMyNiw0MS41MDFjMi45MDItMi4yMTMsNS4yMzMtNS4xMzQsNi43NDctOC41MDFINy4xNDMgQzguOTU3LDM2LjU4OCwxMS44MTcsMzkuNTU3LDE1LjMyNiw0MS41MDF6IiBmaWxsPSIjMDA5Njg4Ii8+PHBhdGggZD0iTTUuOTI4LDE4QzUuMzMyLDE5Ljg5NSw1LDIxLjkwNyw1LDI0czAuMzMyLDQuMTA1LDAuOTI4LDZoMTcuMjM0QzIzLjcwMywyOC4wOTIsMjQsMjYuMDgxLDI0LDI0IHMtMC4yOTctNC4wOTItMC44MzctNkg1LjkyOHoiIGZpbGw9IiMyMTIxMjEiLz48L3N2Zz4=;" vertex="1" parent="1">
          <mxGeometry x="200" y="200" width="80" height="80" as="geometry" />
        </mxCell>
        <mxCell id="a9gxdJ2kkVZLNg_D-e25-11" value="" style="shape=image;verticalLabelPosition=bottom;labelBackgroundColor=default;verticalAlign=top;aspect=fixed;imageAspect=0;image=data:image/svg+xml,PHN2ZyB4bWxucz0iaHR0cDovL3d3dy53My5vcmcvMjAwMC9zdmciIGhlaWdodD0iNDgwcHgiIHdpZHRoPSI0ODBweCIgdmlld0JveD0iMCAwIDQ4IDQ4Ij48Y2lyY2xlIGZpbGw9IiNmZmNhMjgiIHI9IjIwIiBjeT0iMjQiIGN4PSIyNCIvPjxwb2x5Z29uIHBvaW50cz0iMzIsMTkuMTMgMzIsMjIuNDUgMjQsMTguNjYgMTYsMjIuNDUgMTYsMTkuMTMgMjQsMTUuMzQiIGZpbGw9IiNmZmYiLz48cG9seWdvbiBwb2ludHM9IjMyLDI1LjEzIDMyLDI4LjQ1IDI0LDI0LjY2IDE2LDI4LjQ1IDE2LDI1LjEzIDI0LDIxLjM0IiBmaWxsPSIjZmZmIi8+PHBvbHlnb24gcG9pbnRzPSIyOS40MywzMC40NSAyMywzMy4xIDIzLDI5Ljg1IDI1Ljc3LDI4LjcxIiBmaWxsPSIjZmZmIi8+PC9zdmc+;" vertex="1" parent="1">
          <mxGeometry x="440" y="480" width="80" height="80" as="geometry" />
        </mxCell>
        <mxCell id="a9gxdJ2kkVZLNg_D-e25-13" value="" style="endArrow=classic;html=1;rounded=0;exitX=0.5;exitY=0;exitDx=0;exitDy=0;entryX=0.5;entryY=1;entryDx=0;entryDy=0;" edge="1" parent="1" source="a9gxdJ2kkVZLNg_D-e25-1" target="a9gxdJ2kkVZLNg_D-e25-2">
          <mxGeometry width="50" height="50" relative="1" as="geometry">
            <mxPoint x="400" y="340" as="sourcePoint" />
            <mxPoint x="450" y="290" as="targetPoint" />
          </mxGeometry>
        </mxCell>
        <mxCell id="a9gxdJ2kkVZLNg_D-e25-14" value="" style="endArrow=classic;html=1;rounded=0;exitX=1;exitY=0;exitDx=0;exitDy=0;entryX=0;entryY=1;entryDx=0;entryDy=0;" edge="1" parent="1" source="a9gxdJ2kkVZLNg_D-e25-1" target="a9gxdJ2kkVZLNg_D-e25-3">
          <mxGeometry width="50" height="50" relative="1" as="geometry">
            <mxPoint x="400" y="340" as="sourcePoint" />
            <mxPoint x="450" y="290" as="targetPoint" />
          </mxGeometry>
        </mxCell>
        <mxCell id="a9gxdJ2kkVZLNg_D-e25-15" value="" style="endArrow=classic;html=1;rounded=0;exitX=1;exitY=0.5;exitDx=0;exitDy=0;entryX=0;entryY=0.5;entryDx=0;entryDy=0;" edge="1" parent="1" source="a9gxdJ2kkVZLNg_D-e25-1" target="a9gxdJ2kkVZLNg_D-e25-4">
          <mxGeometry width="50" height="50" relative="1" as="geometry">
            <mxPoint x="400" y="340" as="sourcePoint" />
            <mxPoint x="450" y="290" as="targetPoint" />
          </mxGeometry>
        </mxCell>
        <mxCell id="a9gxdJ2kkVZLNg_D-e25-16" value="" style="endArrow=classic;html=1;rounded=0;exitX=1;exitY=1;exitDx=0;exitDy=0;entryX=0.25;entryY=0;entryDx=0;entryDy=0;" edge="1" parent="1" source="a9gxdJ2kkVZLNg_D-e25-1" target="a9gxdJ2kkVZLNg_D-e25-11">
          <mxGeometry width="50" height="50" relative="1" as="geometry">
            <mxPoint x="400" y="340" as="sourcePoint" />
            <mxPoint x="450" y="290" as="targetPoint" />
          </mxGeometry>
        </mxCell>
        <mxCell id="a9gxdJ2kkVZLNg_D-e25-17" value="" style="endArrow=classic;html=1;rounded=0;exitX=0;exitY=1;exitDx=0;exitDy=0;entryX=0.75;entryY=0;entryDx=0;entryDy=0;" edge="1" parent="1" source="a9gxdJ2kkVZLNg_D-e25-1" target="a9gxdJ2kkVZLNg_D-e25-6">
          <mxGeometry width="50" height="50" relative="1" as="geometry">
            <mxPoint x="400" y="340" as="sourcePoint" />
            <mxPoint x="450" y="290" as="targetPoint" />
          </mxGeometry>
        </mxCell>
        <mxCell id="a9gxdJ2kkVZLNg_D-e25-19" value="" style="endArrow=classic;html=1;rounded=0;exitX=0;exitY=0;exitDx=0;exitDy=0;entryX=1;entryY=1;entryDx=0;entryDy=0;" edge="1" parent="1" source="a9gxdJ2kkVZLNg_D-e25-1" target="a9gxdJ2kkVZLNg_D-e25-10">
          <mxGeometry width="50" height="50" relative="1" as="geometry">
            <mxPoint x="400" y="430" as="sourcePoint" />
            <mxPoint x="450" y="380" as="targetPoint" />
          </mxGeometry>
        </mxCell>
      </root>
    </mxGraphModel>
  </diagram>
</mxfile>
